<svg width="32" height="32" viewBox="0 0 40 35" fill="none" xmlns="http://www.w3.org/2000/svg">
  <g filter="url(#base)">
    <ellipse cx="20" cy="17" rx="13" ry="9.5" stroke="#FFFCEA" stroke-width="6.5" fill="none" stroke-linecap="round"></ellipse>
  </g>
  <path d="M7 9 C11 3.5 20 2.5 25 5 L23.5 8 C19 5.5 11 6 8.5 11 Z" fill="#FF5060"></path>
  <g filter="url(#soft)">
    <path d="M26 21.5 C31.5 22.5 31.5 28 27 30 C23 31.5 19.5 29 20.5 25 C21.5 22 23 21.5 26 21.5 Z" fill="#0034FE"></path>
  </g>
  <ellipse cx="30.5" cy="8.5" rx="3.4" ry="2.4" fill="#F99" transform="rotate(-30 30.5 8.5)"></ellipse>
  <rect x="7.5" y="26" width="7" height="2.6" rx="1.3" fill="#210784" transform="rotate(-18 11 27.3)"></rect>
  <defs>
    <filter id="base" x="2" y="2.5" width="35" height="28.5" filterUnits="userSpaceOnUse">
      <feFlood result="BackgroundImageFix"></feFlood>
      <feGaussianBlur in="BackgroundImageFix" stdDeviation=".495"></feGaussianBlur>
      <feComposite in2="SourceAlpha" operator="in" result="effect1_backgroundBlur_259_65398"></feComposite>
      <feBlend in="SourceGraphic" in2="effect1_backgroundBlur_259_65398" result="shape"></feBlend>
    </filter>
    <filter id="soft" x="18" y="20" width="15" height="13" filterUnits="userSpaceOnUse">
      <feFlood result="BackgroundImageFix"></feFlood>
      <feGaussianBlur in="BackgroundImageFix" stdDeviation=".495"></feGaussianBlur>
      <feComposite in2="SourceAlpha" operator="in" result="effect2_backgroundBlur_259_65398"></feComposite>
      <feBlend in="SourceGraphic" in2="effect2_backgroundBlur_259_65398" result="shape"></feBlend>
    </filter>
  </defs>
</svg>
